<mxfile host="app.diagrams.net" modified="2023-05-25T07:09:19.878Z" agent="Mozilla/5.0 (Macintosh; Intel Mac OS X 10_15_7) AppleWebKit/537.36 (KHTML, like Gecko) Chrome/113.0.0.0 Safari/537.36" etag="nJsc_rwV72b2Uzk-DV_b" version="21.3.3" type="github" pages="2">
  <diagram name="페이지-1" id="PGRYKVP842Or1vW37C0W">
    <mxGraphModel dx="788" dy="1156" grid="1" gridSize="10" guides="1" tooltips="1" connect="1" arrows="1" fold="1" page="1" pageScale="1" pageWidth="827" pageHeight="1169" math="0" shadow="0">
      <root>
        <mxCell id="0" />
        <mxCell id="1" parent="0" />
        <mxCell id="1Fu8yYp3ckz7zAabFXxA-1" value="customer" style="shape=umlActor;verticalLabelPosition=bottom;verticalAlign=top;html=1;outlineConnect=0;" vertex="1" parent="1">
          <mxGeometry x="120" y="320" width="30" height="60" as="geometry" />
        </mxCell>
        <mxCell id="1Fu8yYp3ckz7zAabFXxA-4" value="" style="whiteSpace=wrap;html=1;verticalAlign=top;" vertex="1" parent="1">
          <mxGeometry x="270" y="320" width="230" height="180" as="geometry" />
        </mxCell>
        <mxCell id="1Fu8yYp3ckz7zAabFXxA-7" value="producer" style="shape=umlActor;verticalLabelPosition=bottom;verticalAlign=top;html=1;outlineConnect=0;" vertex="1" parent="1">
          <mxGeometry x="120" y="460" width="30" height="60" as="geometry" />
        </mxCell>
        <mxCell id="1Fu8yYp3ckz7zAabFXxA-13" value="database" style="shape=umlActor;verticalLabelPosition=bottom;verticalAlign=top;html=1;outlineConnect=0;" vertex="1" parent="1">
          <mxGeometry x="610" y="360" width="30" height="60" as="geometry" />
        </mxCell>
        <mxCell id="1Fu8yYp3ckz7zAabFXxA-15" value="useResource" style="ellipse;whiteSpace=wrap;html=1;" vertex="1" parent="1">
          <mxGeometry x="310" y="330" width="150" height="50" as="geometry" />
        </mxCell>
        <mxCell id="1Fu8yYp3ckz7zAabFXxA-16" value="updateResource" style="ellipse;whiteSpace=wrap;html=1;" vertex="1" parent="1">
          <mxGeometry x="310" y="420" width="150" height="50" as="geometry" />
        </mxCell>
        <mxCell id="1Fu8yYp3ckz7zAabFXxA-29" value="producer" style="shape=umlActor;verticalLabelPosition=bottom;verticalAlign=top;html=1;outlineConnect=0;" vertex="1" parent="1">
          <mxGeometry x="130" y="640" width="30" height="60" as="geometry" />
        </mxCell>
        <mxCell id="1Fu8yYp3ckz7zAabFXxA-33" value="joinUser" style="ellipse;whiteSpace=wrap;html=1;" vertex="1" parent="1">
          <mxGeometry x="290" y="645" width="150" height="50" as="geometry" />
        </mxCell>
        <mxCell id="1Fu8yYp3ckz7zAabFXxA-34" value="database" style="shape=umlActor;verticalLabelPosition=bottom;verticalAlign=top;html=1;outlineConnect=0;" vertex="1" parent="1">
          <mxGeometry x="570" y="640" width="30" height="60" as="geometry" />
        </mxCell>
        <mxCell id="1Fu8yYp3ckz7zAabFXxA-38" value="" style="endArrow=none;html=1;rounded=0;entryX=0;entryY=0.5;entryDx=0;entryDy=0;" edge="1" parent="1" source="1Fu8yYp3ckz7zAabFXxA-1" target="1Fu8yYp3ckz7zAabFXxA-15">
          <mxGeometry width="50" height="50" relative="1" as="geometry">
            <mxPoint x="160" y="360" as="sourcePoint" />
            <mxPoint x="430" y="570" as="targetPoint" />
          </mxGeometry>
        </mxCell>
        <mxCell id="1Fu8yYp3ckz7zAabFXxA-39" value="" style="endArrow=none;html=1;rounded=0;entryX=0;entryY=0.5;entryDx=0;entryDy=0;" edge="1" parent="1" source="1Fu8yYp3ckz7zAabFXxA-7" target="1Fu8yYp3ckz7zAabFXxA-15">
          <mxGeometry width="50" height="50" relative="1" as="geometry">
            <mxPoint x="160" y="490" as="sourcePoint" />
            <mxPoint x="320" y="365" as="targetPoint" />
          </mxGeometry>
        </mxCell>
        <mxCell id="1Fu8yYp3ckz7zAabFXxA-40" value="" style="endArrow=none;html=1;rounded=0;entryX=0;entryY=0.5;entryDx=0;entryDy=0;" edge="1" parent="1" source="1Fu8yYp3ckz7zAabFXxA-7" target="1Fu8yYp3ckz7zAabFXxA-16">
          <mxGeometry width="50" height="50" relative="1" as="geometry">
            <mxPoint x="160" y="490" as="sourcePoint" />
            <mxPoint x="320" y="365" as="targetPoint" />
          </mxGeometry>
        </mxCell>
        <mxCell id="1Fu8yYp3ckz7zAabFXxA-41" value="" style="endArrow=none;html=1;rounded=0;exitX=1;exitY=0.5;exitDx=0;exitDy=0;" edge="1" parent="1" source="1Fu8yYp3ckz7zAabFXxA-16" target="1Fu8yYp3ckz7zAabFXxA-13">
          <mxGeometry width="50" height="50" relative="1" as="geometry">
            <mxPoint x="170" y="500" as="sourcePoint" />
            <mxPoint x="320" y="455" as="targetPoint" />
          </mxGeometry>
        </mxCell>
        <mxCell id="1Fu8yYp3ckz7zAabFXxA-42" value="" style="endArrow=none;html=1;rounded=0;exitX=1;exitY=0.5;exitDx=0;exitDy=0;" edge="1" parent="1" source="1Fu8yYp3ckz7zAabFXxA-15" target="1Fu8yYp3ckz7zAabFXxA-13">
          <mxGeometry width="50" height="50" relative="1" as="geometry">
            <mxPoint x="470" y="455" as="sourcePoint" />
            <mxPoint x="635" y="400" as="targetPoint" />
          </mxGeometry>
        </mxCell>
        <mxCell id="1Fu8yYp3ckz7zAabFXxA-44" value="" style="endArrow=none;html=1;rounded=0;" edge="1" parent="1" source="1Fu8yYp3ckz7zAabFXxA-29" target="1Fu8yYp3ckz7zAabFXxA-33">
          <mxGeometry width="50" height="50" relative="1" as="geometry">
            <mxPoint x="160" y="496" as="sourcePoint" />
            <mxPoint x="320" y="455" as="targetPoint" />
          </mxGeometry>
        </mxCell>
        <mxCell id="1Fu8yYp3ckz7zAabFXxA-45" value="" style="endArrow=none;html=1;rounded=0;" edge="1" parent="1" target="1Fu8yYp3ckz7zAabFXxA-34">
          <mxGeometry width="50" height="50" relative="1" as="geometry">
            <mxPoint x="440" y="669.5" as="sourcePoint" />
            <mxPoint x="570" y="669.5" as="targetPoint" />
          </mxGeometry>
        </mxCell>
        <mxCell id="1Fu8yYp3ckz7zAabFXxA-46" value="&amp;lt;&amp;lt; participate &amp;gt;&amp;gt;" style="whiteSpace=wrap;html=1;strokeColor=none;" vertex="1" parent="1">
          <mxGeometry x="170" y="650" width="120" height="20" as="geometry" />
        </mxCell>
        <mxCell id="1Fu8yYp3ckz7zAabFXxA-47" value="&amp;lt;&amp;lt; connection &amp;gt;&amp;gt;" style="whiteSpace=wrap;html=1;strokeColor=none;" vertex="1" parent="1">
          <mxGeometry x="450" y="649" width="120" height="20" as="geometry" />
        </mxCell>
        <mxCell id="1Fu8yYp3ckz7zAabFXxA-49" value="joinUser" style="ellipse;whiteSpace=wrap;html=1;" vertex="1" parent="1">
          <mxGeometry x="180" y="780" width="150" height="50" as="geometry" />
        </mxCell>
        <mxCell id="1Fu8yYp3ckz7zAabFXxA-53" value="&amp;lt;&amp;lt; extend &amp;gt;&amp;gt;" style="whiteSpace=wrap;html=1;strokeColor=none;" vertex="1" parent="1">
          <mxGeometry x="80" y="835" width="120" height="20" as="geometry" />
        </mxCell>
        <mxCell id="1Fu8yYp3ckz7zAabFXxA-55" value="joinUserAdmin" style="ellipse;whiteSpace=wrap;html=1;" vertex="1" parent="1">
          <mxGeometry x="60" y="895" width="150" height="50" as="geometry" />
        </mxCell>
        <mxCell id="1Fu8yYp3ckz7zAabFXxA-56" value="" style="endArrow=classic;html=1;rounded=0;strokeColor=default;dashed=1;" edge="1" parent="1" source="1Fu8yYp3ckz7zAabFXxA-49" target="1Fu8yYp3ckz7zAabFXxA-55">
          <mxGeometry width="50" height="50" relative="1" as="geometry">
            <mxPoint x="270" y="595" as="sourcePoint" />
            <mxPoint x="320" y="545" as="targetPoint" />
          </mxGeometry>
        </mxCell>
        <mxCell id="1Fu8yYp3ckz7zAabFXxA-57" value="joinUser" style="ellipse;whiteSpace=wrap;html=1;" vertex="1" parent="1">
          <mxGeometry x="430" y="910" width="150" height="50" as="geometry" />
        </mxCell>
        <mxCell id="1Fu8yYp3ckz7zAabFXxA-58" value="&amp;lt;&amp;lt; include &amp;gt;&amp;gt;" style="whiteSpace=wrap;html=1;strokeColor=none;" vertex="1" parent="1">
          <mxGeometry x="330" y="965" width="120" height="20" as="geometry" />
        </mxCell>
        <mxCell id="1Fu8yYp3ckz7zAabFXxA-59" value="validateID" style="ellipse;whiteSpace=wrap;html=1;" vertex="1" parent="1">
          <mxGeometry x="310" y="1025" width="150" height="50" as="geometry" />
        </mxCell>
        <mxCell id="1Fu8yYp3ckz7zAabFXxA-60" value="" style="endArrow=classic;html=1;rounded=0;strokeColor=default;dashed=1;" edge="1" parent="1" source="1Fu8yYp3ckz7zAabFXxA-57" target="1Fu8yYp3ckz7zAabFXxA-59">
          <mxGeometry width="50" height="50" relative="1" as="geometry">
            <mxPoint x="520" y="725" as="sourcePoint" />
            <mxPoint x="570" y="675" as="targetPoint" />
          </mxGeometry>
        </mxCell>
        <mxCell id="1Fu8yYp3ckz7zAabFXxA-61" value="validateUser" style="ellipse;whiteSpace=wrap;html=1;" vertex="1" parent="1">
          <mxGeometry x="540" y="1020" width="150" height="50" as="geometry" />
        </mxCell>
        <mxCell id="1Fu8yYp3ckz7zAabFXxA-62" value="" style="endArrow=classic;html=1;rounded=0;strokeColor=default;dashed=1;" edge="1" parent="1" source="1Fu8yYp3ckz7zAabFXxA-57" target="1Fu8yYp3ckz7zAabFXxA-61">
          <mxGeometry width="50" height="50" relative="1" as="geometry">
            <mxPoint x="490" y="969" as="sourcePoint" />
            <mxPoint x="420" y="1036" as="targetPoint" />
          </mxGeometry>
        </mxCell>
        <mxCell id="1Fu8yYp3ckz7zAabFXxA-63" value="&amp;lt;&amp;lt; include &amp;gt;&amp;gt;" style="whiteSpace=wrap;html=1;strokeColor=none;" vertex="1" parent="1">
          <mxGeometry x="565" y="965" width="120" height="20" as="geometry" />
        </mxCell>
        <mxCell id="1Fu8yYp3ckz7zAabFXxA-64" value="joinUser" style="ellipse;whiteSpace=wrap;html=1;" vertex="1" parent="1">
          <mxGeometry x="560" y="130" width="150" height="50" as="geometry" />
        </mxCell>
        <mxCell id="1Fu8yYp3ckz7zAabFXxA-66" value="joinUserAdmin" style="ellipse;whiteSpace=wrap;html=1;" vertex="1" parent="1">
          <mxGeometry x="440" y="245" width="150" height="50" as="geometry" />
        </mxCell>
        <mxCell id="1Fu8yYp3ckz7zAabFXxA-68" value="joinUserTeacher" style="ellipse;whiteSpace=wrap;html=1;" vertex="1" parent="1">
          <mxGeometry x="670" y="240" width="150" height="50" as="geometry" />
        </mxCell>
        <mxCell id="1Fu8yYp3ckz7zAabFXxA-71" value="" style="endArrow=classic;html=1;rounded=0;" edge="1" parent="1" source="1Fu8yYp3ckz7zAabFXxA-66" target="1Fu8yYp3ckz7zAabFXxA-64">
          <mxGeometry width="50" height="50" relative="1" as="geometry">
            <mxPoint x="470" y="330" as="sourcePoint" />
            <mxPoint x="520" y="280" as="targetPoint" />
          </mxGeometry>
        </mxCell>
        <mxCell id="1Fu8yYp3ckz7zAabFXxA-72" value="" style="endArrow=classic;html=1;rounded=0;" edge="1" parent="1" source="1Fu8yYp3ckz7zAabFXxA-68" target="1Fu8yYp3ckz7zAabFXxA-64">
          <mxGeometry width="50" height="50" relative="1" as="geometry">
            <mxPoint x="550" y="256" as="sourcePoint" />
            <mxPoint x="620" y="189" as="targetPoint" />
          </mxGeometry>
        </mxCell>
      </root>
    </mxGraphModel>
  </diagram>
  <diagram id="T2w71I37igCj-aaJq9Zc" name="페이지-2">
    <mxGraphModel dx="788" dy="1104" grid="0" gridSize="10" guides="1" tooltips="1" connect="1" arrows="1" fold="1" page="1" pageScale="1" pageWidth="827" pageHeight="1169" math="0" shadow="0">
      <root>
        <mxCell id="0" />
        <mxCell id="1" parent="0" />
        <mxCell id="hgV2TsmYySd6RpgMndly-1" value="분석 모델" style="rounded=0;whiteSpace=wrap;html=1;strokeWidth=1;fontSize=15;" vertex="1" parent="1">
          <mxGeometry x="361" y="240" width="106" height="40" as="geometry" />
        </mxCell>
        <mxCell id="hgV2TsmYySd6RpgMndly-2" value="분석 객체 모델" style="rounded=0;whiteSpace=wrap;html=1;strokeWidth=1;fontSize=15;" vertex="1" parent="1">
          <mxGeometry x="361" y="360" width="106" height="40" as="geometry" />
        </mxCell>
        <mxCell id="hgV2TsmYySd6RpgMndly-4" value="기능 모델" style="rounded=0;whiteSpace=wrap;html=1;strokeWidth=1;fontSize=15;" vertex="1" parent="1">
          <mxGeometry x="170" y="360" width="106" height="40" as="geometry" />
        </mxCell>
        <mxCell id="hgV2TsmYySd6RpgMndly-5" value="동적 모델" style="rounded=0;whiteSpace=wrap;html=1;strokeWidth=1;fontSize=15;" vertex="1" parent="1">
          <mxGeometry x="560" y="360" width="106" height="40" as="geometry" />
        </mxCell>
        <mxCell id="hgV2TsmYySd6RpgMndly-6" value="유스케이스&lt;br&gt;다이어그램" style="rounded=0;whiteSpace=wrap;html=1;strokeWidth=1;fontSize=15;" vertex="1" parent="1">
          <mxGeometry x="170" y="480" width="106" height="40" as="geometry" />
        </mxCell>
        <mxCell id="hgV2TsmYySd6RpgMndly-7" value="클래스&lt;br&gt;다이어그램" style="rounded=0;whiteSpace=wrap;html=1;strokeWidth=1;fontSize=15;" vertex="1" parent="1">
          <mxGeometry x="361" y="480" width="106" height="40" as="geometry" />
        </mxCell>
        <mxCell id="hgV2TsmYySd6RpgMndly-8" value="상태 머신&lt;br&gt;다이어그램" style="rounded=0;whiteSpace=wrap;html=1;strokeWidth=1;fontSize=15;" vertex="1" parent="1">
          <mxGeometry x="500" y="480" width="106" height="40" as="geometry" />
        </mxCell>
        <mxCell id="hgV2TsmYySd6RpgMndly-9" value="시퀀스&lt;br&gt;다이어그램" style="rounded=0;whiteSpace=wrap;html=1;strokeWidth=1;fontSize=15;" vertex="1" parent="1">
          <mxGeometry x="650" y="480" width="106" height="40" as="geometry" />
        </mxCell>
        <mxCell id="hgV2TsmYySd6RpgMndly-11" value="" style="endArrow=none;html=1;rounded=0;" edge="1" parent="1" source="hgV2TsmYySd6RpgMndly-8" target="hgV2TsmYySd6RpgMndly-5">
          <mxGeometry width="50" height="50" relative="1" as="geometry">
            <mxPoint x="370" y="530" as="sourcePoint" />
            <mxPoint x="420" y="480" as="targetPoint" />
          </mxGeometry>
        </mxCell>
        <mxCell id="hgV2TsmYySd6RpgMndly-13" value="" style="endArrow=none;html=1;rounded=0;" edge="1" parent="1" source="hgV2TsmYySd6RpgMndly-2" target="hgV2TsmYySd6RpgMndly-1">
          <mxGeometry width="50" height="50" relative="1" as="geometry">
            <mxPoint x="265" y="370" as="sourcePoint" />
            <mxPoint x="392" y="290" as="targetPoint" />
          </mxGeometry>
        </mxCell>
        <mxCell id="hgV2TsmYySd6RpgMndly-14" value="" style="endArrow=none;html=1;rounded=0;" edge="1" parent="1" source="hgV2TsmYySd6RpgMndly-4" target="hgV2TsmYySd6RpgMndly-1">
          <mxGeometry width="50" height="50" relative="1" as="geometry">
            <mxPoint x="424" y="370" as="sourcePoint" />
            <mxPoint x="424" y="290" as="targetPoint" />
          </mxGeometry>
        </mxCell>
        <mxCell id="hgV2TsmYySd6RpgMndly-15" value="" style="endArrow=none;html=1;rounded=0;" edge="1" parent="1" source="hgV2TsmYySd6RpgMndly-5" target="hgV2TsmYySd6RpgMndly-1">
          <mxGeometry width="50" height="50" relative="1" as="geometry">
            <mxPoint x="265" y="370" as="sourcePoint" />
            <mxPoint x="392" y="290" as="targetPoint" />
          </mxGeometry>
        </mxCell>
        <mxCell id="hgV2TsmYySd6RpgMndly-16" value="" style="endArrow=none;html=1;rounded=0;" edge="1" parent="1" source="hgV2TsmYySd6RpgMndly-4" target="hgV2TsmYySd6RpgMndly-6">
          <mxGeometry width="50" height="50" relative="1" as="geometry">
            <mxPoint x="265" y="370" as="sourcePoint" />
            <mxPoint x="392" y="290" as="targetPoint" />
          </mxGeometry>
        </mxCell>
        <mxCell id="hgV2TsmYySd6RpgMndly-17" value="" style="endArrow=none;html=1;rounded=0;" edge="1" parent="1" source="hgV2TsmYySd6RpgMndly-2" target="hgV2TsmYySd6RpgMndly-7">
          <mxGeometry width="50" height="50" relative="1" as="geometry">
            <mxPoint x="233" y="410" as="sourcePoint" />
            <mxPoint x="400" y="500" as="targetPoint" />
          </mxGeometry>
        </mxCell>
        <mxCell id="hgV2TsmYySd6RpgMndly-18" value="" style="endArrow=none;html=1;rounded=0;" edge="1" parent="1" source="hgV2TsmYySd6RpgMndly-9" target="hgV2TsmYySd6RpgMndly-5">
          <mxGeometry width="50" height="50" relative="1" as="geometry">
            <mxPoint x="573" y="490" as="sourcePoint" />
            <mxPoint x="613" y="410" as="targetPoint" />
          </mxGeometry>
        </mxCell>
        <mxCell id="PGhm-ImNnP8cmlvqUnAg-1" value="user" style="shape=umlActor;verticalLabelPosition=bottom;verticalAlign=top;html=1;outlineConnect=0;" vertex="1" parent="1">
          <mxGeometry x="157" y="622" width="30" height="60" as="geometry" />
        </mxCell>
        <mxCell id="PGhm-ImNnP8cmlvqUnAg-2" value="" style="whiteSpace=wrap;html=1;verticalAlign=top;" vertex="1" parent="1">
          <mxGeometry x="307" y="622" width="230" height="268" as="geometry" />
        </mxCell>
        <mxCell id="PGhm-ImNnP8cmlvqUnAg-3" value="student" style="shape=umlActor;verticalLabelPosition=bottom;verticalAlign=top;html=1;outlineConnect=0;" vertex="1" parent="1">
          <mxGeometry x="90" y="730" width="30" height="60" as="geometry" />
        </mxCell>
        <mxCell id="PGhm-ImNnP8cmlvqUnAg-4" value="database" style="shape=umlActor;verticalLabelPosition=bottom;verticalAlign=top;html=1;outlineConnect=0;" vertex="1" parent="1">
          <mxGeometry x="647" y="662" width="30" height="60" as="geometry" />
        </mxCell>
        <mxCell id="PGhm-ImNnP8cmlvqUnAg-5" value="회원 가입" style="ellipse;whiteSpace=wrap;html=1;" vertex="1" parent="1">
          <mxGeometry x="347" y="632" width="150" height="50" as="geometry" />
        </mxCell>
        <mxCell id="PGhm-ImNnP8cmlvqUnAg-6" value="수강 신청" style="ellipse;whiteSpace=wrap;html=1;" vertex="1" parent="1">
          <mxGeometry x="347" y="722" width="150" height="50" as="geometry" />
        </mxCell>
        <mxCell id="PGhm-ImNnP8cmlvqUnAg-7" value="" style="endArrow=none;html=1;rounded=0;entryX=0;entryY=0.5;entryDx=0;entryDy=0;" edge="1" parent="1" source="PGhm-ImNnP8cmlvqUnAg-1" target="PGhm-ImNnP8cmlvqUnAg-5">
          <mxGeometry width="50" height="50" relative="1" as="geometry">
            <mxPoint x="197" y="662" as="sourcePoint" />
            <mxPoint x="467" y="872" as="targetPoint" />
          </mxGeometry>
        </mxCell>
        <mxCell id="PGhm-ImNnP8cmlvqUnAg-10" value="" style="endArrow=none;html=1;rounded=0;exitX=1;exitY=0.5;exitDx=0;exitDy=0;" edge="1" parent="1" source="PGhm-ImNnP8cmlvqUnAg-6" target="PGhm-ImNnP8cmlvqUnAg-4">
          <mxGeometry width="50" height="50" relative="1" as="geometry">
            <mxPoint x="207" y="802" as="sourcePoint" />
            <mxPoint x="357" y="757" as="targetPoint" />
          </mxGeometry>
        </mxCell>
        <mxCell id="PGhm-ImNnP8cmlvqUnAg-11" value="" style="endArrow=none;html=1;rounded=0;exitX=1;exitY=0.5;exitDx=0;exitDy=0;" edge="1" parent="1" source="PGhm-ImNnP8cmlvqUnAg-5" target="PGhm-ImNnP8cmlvqUnAg-4">
          <mxGeometry width="50" height="50" relative="1" as="geometry">
            <mxPoint x="507" y="757" as="sourcePoint" />
            <mxPoint x="672" y="702" as="targetPoint" />
          </mxGeometry>
        </mxCell>
        <mxCell id="PGhm-ImNnP8cmlvqUnAg-14" value="학교 업무 시스템" style="whiteSpace=wrap;html=1;strokeColor=none;" vertex="1" parent="1">
          <mxGeometry x="362" y="585" width="120" height="28" as="geometry" />
        </mxCell>
        <mxCell id="PGhm-ImNnP8cmlvqUnAg-15" value="시험 평가" style="ellipse;whiteSpace=wrap;html=1;" vertex="1" parent="1">
          <mxGeometry x="347" y="810" width="150" height="50" as="geometry" />
        </mxCell>
        <mxCell id="PGhm-ImNnP8cmlvqUnAg-21" value="staff" style="shape=umlActor;verticalLabelPosition=bottom;verticalAlign=top;html=1;outlineConnect=0;" vertex="1" parent="1">
          <mxGeometry x="220" y="726" width="30" height="60" as="geometry" />
        </mxCell>
        <mxCell id="PGhm-ImNnP8cmlvqUnAg-22" value="" style="endArrow=none;html=1;rounded=0;" edge="1" parent="1" source="PGhm-ImNnP8cmlvqUnAg-15" target="PGhm-ImNnP8cmlvqUnAg-4">
          <mxGeometry width="50" height="50" relative="1" as="geometry">
            <mxPoint x="507" y="757" as="sourcePoint" />
            <mxPoint x="657" y="707" as="targetPoint" />
          </mxGeometry>
        </mxCell>
        <mxCell id="PGhm-ImNnP8cmlvqUnAg-23" value="" style="endArrow=classic;html=1;rounded=0;" edge="1" parent="1" source="PGhm-ImNnP8cmlvqUnAg-3">
          <mxGeometry width="50" height="50" relative="1" as="geometry">
            <mxPoint x="380" y="590" as="sourcePoint" />
            <mxPoint x="160" y="690" as="targetPoint" />
          </mxGeometry>
        </mxCell>
        <mxCell id="PGhm-ImNnP8cmlvqUnAg-25" value="" style="endArrow=classic;html=1;rounded=0;entryX=1;entryY=1;entryDx=0;entryDy=0;entryPerimeter=0;exitX=0.5;exitY=0.5;exitDx=0;exitDy=0;exitPerimeter=0;" edge="1" parent="1" source="PGhm-ImNnP8cmlvqUnAg-21" target="PGhm-ImNnP8cmlvqUnAg-1">
          <mxGeometry width="50" height="50" relative="1" as="geometry">
            <mxPoint x="220" y="790" as="sourcePoint" />
            <mxPoint x="182" y="662" as="targetPoint" />
          </mxGeometry>
        </mxCell>
        <mxCell id="PGhm-ImNnP8cmlvqUnAg-28" value="" style="endArrow=none;html=1;rounded=0;exitX=0.5;exitY=0.5;exitDx=0;exitDy=0;exitPerimeter=0;" edge="1" parent="1" source="PGhm-ImNnP8cmlvqUnAg-1" target="PGhm-ImNnP8cmlvqUnAg-6">
          <mxGeometry width="50" height="50" relative="1" as="geometry">
            <mxPoint x="150" y="650" as="sourcePoint" />
            <mxPoint x="357" y="667" as="targetPoint" />
          </mxGeometry>
        </mxCell>
        <mxCell id="PGhm-ImNnP8cmlvqUnAg-29" value="" style="endArrow=none;html=1;rounded=0;" edge="1" parent="1" source="PGhm-ImNnP8cmlvqUnAg-1" target="PGhm-ImNnP8cmlvqUnAg-15">
          <mxGeometry width="50" height="50" relative="1" as="geometry">
            <mxPoint x="182" y="662" as="sourcePoint" />
            <mxPoint x="383" y="738" as="targetPoint" />
          </mxGeometry>
        </mxCell>
        <mxCell id="PGhm-ImNnP8cmlvqUnAg-30" value="평가 데이터 관리 시스템" style="shape=umlActor;verticalLabelPosition=bottom;verticalAlign=top;html=1;outlineConnect=0;" vertex="1" parent="1">
          <mxGeometry x="636" y="830" width="30" height="60" as="geometry" />
        </mxCell>
        <mxCell id="PGhm-ImNnP8cmlvqUnAg-31" value="" style="endArrow=none;html=1;rounded=0;entryX=0.5;entryY=0.5;entryDx=0;entryDy=0;entryPerimeter=0;" edge="1" parent="1" source="PGhm-ImNnP8cmlvqUnAg-15" target="PGhm-ImNnP8cmlvqUnAg-30">
          <mxGeometry width="50" height="50" relative="1" as="geometry">
            <mxPoint x="469" y="823" as="sourcePoint" />
            <mxPoint x="657" y="711" as="targetPoint" />
          </mxGeometry>
        </mxCell>
      </root>
    </mxGraphModel>
  </diagram>
</mxfile>
